# xmcd
# Track frame offsets:
# 150
# 17300
# 34690
# 46939
# 68600
# 93337
# 127687
# 146615
# 165517
# 184090
# 200762
# 223800
#
# Disc length: 3281 seconds
# Revision: 0
# Processed by: cddbd v1.5PL3 Copyright (c) Steve Scherf et al.
# Submitted via: VisiTrax 2.9.9.202 - For more info visit www.synapsa.com
#
DISCID=9b0ccf0c
DTITLE=Various Artist - TIME LIFE Body and Soul - Smooth and Silky Disc 1
DYEAR=1900
DGENRE=
TTITLE0=Al Jarreau - We're In This Love Together
TTITLE1=George Benson - Turn Your Love Around
TTITLE2=Marvin Gaye - Come Get To This
TTITLE3=Bobby Caldwell - What You Won't Do For Love
TTITLE4=Luther Vandross feat. Cassandra Wilson and Bob James - I'm Only Human
TTITLE5=Herb Alpert - Rise
TTITLE6=Fourplay feat. El DeBarge - After The Dance
TTITLE7=Bill Withers - Lovely day
TTITLE8=Kenny G feat. Ellis Hall - What Does It Take (To Win Your Love)
TTITLE9=Michael McDonald - I Keep Forgettin' (Every Time You're Near)
TTITLE10=Kool and The Gang - Too Hot
TTITLE11=Randy Crawford - Knockin' On Heaven's Door
EXTD=
EXTT0=
EXTT1=
EXTT2=
EXTT3=
EXTT4=
EXTT5=
EXTT6=
EXTT7=
EXTT8=
EXTT9=
EXTT10=
EXTT11=
PLAYORDER=
